<svg xmlns="http://www.w3.org/2000/svg" xmlns:xlink="http://www.w3.org/1999/xlink" viewBox="0 0 500 500"><defs><clipPath id="freepik--clip-path--inject-2"><path d="M158.75,50l-1.55,3.58a7,7,0,0,1-6.45,4.23H110.53a7,7,0,0,1-6.44-4.23L102.53,50a7,7,0,0,0-6.45-4.23H68.27a5.11,5.11,0,0,0-5.11,5.12V312.91A5.11,5.11,0,0,0,68.27,318H193a5.12,5.12,0,0,0,5.12-5.12v-262A5.12,5.12,0,0,0,193,45.74H165.2A7,7,0,0,0,158.75,50Z" style="fill:#92B5E3;stroke:#263238;stroke-linecap:round;stroke-linejoin:round"></path></clipPath><clipPath id="freepik--clip-path-2--inject-2"><path d="M159.18,432.2H146.35a11.82,11.82,0,0,1-11.78-10.83L132,395.74h41.46L171,421.37A11.83,11.83,0,0,1,159.18,432.2Z" style="fill:#fff;stroke:#263238;stroke-linecap:round;stroke-linejoin:round"></path></clipPath><clipPath id="freepik--clip-path-3--inject-2"><path d="M217.88,316.47S202.75,358.15,207.55,376s29.85,12.35,36,1.42,18.07-50.58,18.07-50.58l-12.35-23.75-27.35,6.17L219.3,313Z" style="fill:#858585;stroke:#263238;stroke-linecap:round;stroke-linejoin:round"></path></clipPath><clipPath id="freepik--clip-path-4--inject-2"><path d="M415.78,256.21s-16,84-18.4,185.25H253.46s16.32-85.93-2-198C251.49,243.43,325.69,190.62,415.78,256.21Z" style="fill:#92B5E3;stroke:#263238;stroke-linecap:round;stroke-linejoin:round"></path></clipPath><clipPath id="freepik--clip-path-5--inject-2"><path d="M437.16,326.4s2.22,58.8-18.54,79.17c0,0-24.93,5.7-97.84-49.72,0,0-7.24.63-11-3.8,0,0-11.75,4.12-17.91-2.53,0,0-7.9.31-9.67-7,0,0-5,.63-6.76-1.58,0,0-6,.31-6.85-2.85s5.93-5.72,5.93-5.72.13-7.27,3.14-9.48a24,24,0,0,1,5.79-3.17s-19.92-12-17.49-18.68,5.77,5.06,24.72,13.3c0,0,9.52.31,11.35,3.8l23.05,19.31s6.74,1.8,8.95,2.54c14.33,4.78,34.42,13.3,58.28,14.88l4.63-38S425.87,309.93,437.16,326.4Z" style="fill:#858585;stroke:#263238;stroke-linecap:round;stroke-linejoin:round"></path></clipPath><clipPath id="freepik--clip-path-6--inject-2"><path d="M358.46,229.9s-11.16-17.34-8.07-47.27l-45.65,3s-.4,39.58-15,41.68l11.92,15.25,10.51.78,18.17.08,26.48-8.55Z" style="fill:#858585;stroke:#263238;stroke-linecap:round;stroke-linejoin:round"></path></clipPath><clipPath id="freepik--clip-path-7--inject-2"><path d="M229.76,316.47S206.85,359.1,207.55,376s11.32,22.56,11.32,22.56,28.64-1.42,29.11-35.39l3.87-33s10-3.4,14-10.37c0,0,10-3.4,13.14-9.1s5-13.07,1.85-14.25-5.35,9.2-8.09,11.16c-1.83,1.31-4.76,3-6.49,4a1.51,1.51,0,0,1-2.08-.77h0a1.36,1.36,0,0,1,.41-1.67,30.65,30.65,0,0,0,6.27-6c3-4,11.49-15.68,7.27-18.29S267,295,264.26,297.11c-1.67,1.32-4,2.83-5.47,3.79a2.51,2.51,0,0,1-3-.34l-.17-.15a2.53,2.53,0,0,1-.64-3,42.27,42.27,0,0,1,2.64-4.85c1.82-2.41,4.25-4.73,8-9.06,3.91-4.48,7.38-7.65,4.74-9.71-5.19-4-18.62,11.17-20.39,13.07a19.71,19.71,0,0,0-2.78,4.56,1.45,1.45,0,0,1-2,.61h0a1.66,1.66,0,0,1-.87-1.3c-.16-1.89-.47-6.28-.06-7.91.59-2.36,2.27-4,4.7-8.36,2.14-3.79,4.62-7.79,2.84-9.45-3.81-3.57-11.37,7.36-11.37,7.36L235,282.15s2.26-5-.52-7.37-2.62,3.09-5,5.94-.1,8.79-.75,13.06a55.42,55.42,0,0,0-.66,7.6Z" style="fill:#858585;stroke:#263238;stroke-linecap:round;stroke-linejoin:round"></path></clipPath></defs><g id="freepik--background-simple--inject-2"><path d="M242.94,53.86C117.63,41.38,45.11,114.74,32,237,19.22,355.63,48.13,460.77,167.44,460.77c37.79,0,82.08-24.44,125-37,92.56-27,172.3-25.3,178.59-146.13C477.87,145.62,361.67,65.68,242.94,53.86ZM81,233c-6.45,0-6.43-10,0-10S87.43,233,81,233Z" style="fill:#92B5E3"></path><path d="M242.94,53.86C117.63,41.38,45.11,114.74,32,237,19.22,355.63,48.13,460.77,167.44,460.77c37.79,0,82.08-24.44,125-37,92.56-27,172.3-25.3,178.59-146.13C477.87,145.62,361.67,65.68,242.94,53.86ZM81,233c-6.45,0-6.43-10,0-10S87.43,233,81,233Z" style="fill:#fff;opacity:0.75"></path></g><g id="freepik--Table--inject-2"><g id="freepik--freepik--Table--inject-4--inject-2"><line x1="40" y1="441.46" x2="460" y2="441.46" style="fill:none;stroke:#263238;stroke-linecap:round;stroke-linejoin:round"></line></g></g><g id="freepik--Device--inject-2"><path d="M196.48,37.37H64.8a10,10,0,0,0-10,10v269a10,10,0,0,0,10,10H196.48a10,10,0,0,0,10-10v-269A10,10,0,0,0,196.48,37.37ZM81,233c-6.45,0-6.43-10,0-10S87.43,233,81,233Z" style="fill:#263238;stroke:#263238;stroke-linecap:round;stroke-linejoin:round"></path><path d="M133.15,48.92a2.51,2.51,0,1,1-2.51-2.51A2.51,2.51,0,0,1,133.15,48.92Z" style="fill:#92B5E3;stroke:#263238;stroke-linecap:round;stroke-linejoin:round"></path><path d="M158.75,50l-1.55,3.58a7,7,0,0,1-6.45,4.23H110.53a7,7,0,0,1-6.44-4.23L102.53,50a7,7,0,0,0-6.45-4.23H68.27a5.11,5.11,0,0,0-5.11,5.12V312.91A5.11,5.11,0,0,0,68.27,318H193a5.12,5.12,0,0,0,5.12-5.12v-262A5.12,5.12,0,0,0,193,45.74H165.2A7,7,0,0,0,158.75,50Z" style="fill:#92B5E3"></path><g style="clip-path:url(#freepik--clip-path--inject-2)"><path d="M193,45.74H165.2A7,7,0,0,0,158.75,50l-1.55,3.58a7,7,0,0,1-6.45,4.23H110.53a7,7,0,0,1-6.44-4.23L102.53,50a7,7,0,0,0-6.45-4.23H68.27a5.11,5.11,0,0,0-5.11,5.12V312.91A5.11,5.11,0,0,0,68.27,318H193a5.12,5.12,0,0,0,5.12-5.12v-262A5.12,5.12,0,0,0,193,45.74ZM81,233c-6.45,0-6.43-10,0-10S87.43,233,81,233Z" style="fill:#fff;stroke:#263238;stroke-linecap:round;stroke-linejoin:round;opacity:0.5"></path></g><path d="M158.75,50l-1.55,3.58a7,7,0,0,1-6.45,4.23H110.53a7,7,0,0,1-6.44-4.23L102.53,50a7,7,0,0,0-6.45-4.23H68.27a5.11,5.11,0,0,0-5.11,5.12V312.91A5.11,5.11,0,0,0,68.27,318H193a5.12,5.12,0,0,0,5.12-5.12v-262A5.12,5.12,0,0,0,193,45.74H165.2A7,7,0,0,0,158.75,50Z" style="fill:none;stroke:#263238;stroke-linecap:round;stroke-linejoin:round"></path><rect x="67.34" y="64.23" width="126.6" height="23.04" rx="4.53" style="fill:#fff;stroke:#263238;stroke-linecap:round;stroke-linejoin:round;stroke-width:0.75px"></rect><path d="M134.69,76.62a3.48,3.48,0,1,0-5.31-.46.64.64,0,0,0-.22.14l-3.39,3.39a.65.65,0,0,0,0,.93.64.64,0,0,0,.92,0l3.39-3.39a.54.54,0,0,0,.15-.22A3.48,3.48,0,0,0,134.69,76.62ZM130.37,76a2.62,2.62,0,1,1,3.71,0A2.62,2.62,0,0,1,130.37,76Z" style="fill:#263238"></path><path d="M87.75,71.09H74.22a.87.87,0,0,1-.88-.88h0a.87.87,0,0,1,.88-.87H87.75a.88.88,0,0,1,.88.87h0A.88.88,0,0,1,87.75,71.09Z" style="fill:#263238;stroke:#263238;stroke-linecap:round;stroke-linejoin:round;stroke-width:0.75px"></path><path d="M86,76.1H74.22a.87.87,0,0,1-.88-.87h0a.87.87,0,0,1,.88-.88H86a.88.88,0,0,1,.88.88h0A.88.88,0,0,1,86,76.1Z" style="fill:#263238;stroke:#263238;stroke-linecap:round;stroke-linejoin:round;stroke-width:0.75px"></path><path d="M84.25,81.12h-10a.88.88,0,0,1-.88-.88h0a.87.87,0,0,1,.88-.87h10a.88.88,0,0,1,.88.87h0A.89.89,0,0,1,84.25,81.12Z" style="fill:#263238;stroke:#263238;stroke-linecap:round;stroke-linejoin:round;stroke-width:0.75px"></path><rect x="67.34" y="94.08" width="126.6" height="71.45" rx="4.53" style="fill:#fff;stroke:#263238;stroke-linecap:round;stroke-linejoin:round;stroke-width:0.75px"></rect><rect x="83.26" y="103.07" width="94.77" height="53.49" style="fill:#92B5E3;stroke:#263238;stroke-linecap:round;stroke-linejoin:round;stroke-width:0.75px"></rect><path d="M149.16,135.47H91.06a1.57,1.57,0,0,1-1.57-1.56h0a1.57,1.57,0,0,1,1.57-1.57h58.1a1.57,1.57,0,0,1,1.57,1.57h0A1.56,1.56,0,0,1,149.16,135.47Z" style="fill:#263238;stroke:#263238;stroke-linecap:round;stroke-linejoin:round;stroke-width:0.75px"></path><path d="M144.59,142.07H91.06a1.58,1.58,0,0,1-1.57-1.57h0a1.57,1.57,0,0,1,1.57-1.57h53.53a1.57,1.57,0,0,1,1.57,1.57h0A1.58,1.58,0,0,1,144.59,142.07Z" style="fill:#263238;stroke:#263238;stroke-linecap:round;stroke-linejoin:round;stroke-width:0.75px"></path><path d="M120.11,150.89a1.36,1.36,0,1,1-1.36-1.36A1.36,1.36,0,0,1,120.11,150.89Z" style="fill:#fff"></path><path d="M128,150.89a1.36,1.36,0,1,1-1.36-1.36A1.36,1.36,0,0,1,128,150.89Z" style="fill:#fff"></path><path d="M136,150.89a1.36,1.36,0,1,1-1.36-1.36A1.36,1.36,0,0,1,136,150.89Z" style="fill:#fff"></path><path d="M143.89,150.89a1.36,1.36,0,1,1-1.36-1.36A1.36,1.36,0,0,1,143.89,150.89Z" style="fill:#fff"></path><path d="M183.26,136.4a1,1,0,0,1-.66-.23,1,1,0,0,1-.16-1.47l4-4.89-4-4.89a1,1,0,0,1,1.63-1.32l4.5,5.55a1.05,1.05,0,0,1,0,1.32l-4.5,5.55A1.06,1.06,0,0,1,183.26,136.4Z" style="fill:#92B5E3"></path><path d="M78,136.4a1.06,1.06,0,0,1-.82-.38l-4.5-5.55a1.05,1.05,0,0,1,0-1.32l4.5-5.55a1,1,0,0,1,1.63,1.32l-4,4.89,4,4.89a1,1,0,0,1-.16,1.47A1,1,0,0,1,78,136.4Z" style="fill:#92B5E3"></path><rect x="69.43" y="173.99" width="27.41" height="27.41" rx="8.07" style="fill:#92B5E3;stroke:#263238;stroke-linecap:round;stroke-linejoin:round;stroke-width:0.75px"></rect><path d="M83.14,196.14h0a8.44,8.44,0,0,1-8.44-8.44h0a8.44,8.44,0,0,1,8.44-8.45h0a8.44,8.44,0,0,1,8.44,8.45h0A8.44,8.44,0,0,1,83.14,196.14Z" style="fill:#fff;opacity:0.5"></path><path d="M95.28,209.67H71a1.57,1.57,0,0,1-1.57-1.57h0A1.57,1.57,0,0,1,71,206.53H95.28a1.57,1.57,0,0,1,1.57,1.57h0A1.57,1.57,0,0,1,95.28,209.67Z" style="fill:#263238;stroke:#263238;stroke-linecap:round;stroke-linejoin:round;stroke-width:0.75px"></path><path d="M189.41,220.19H71.87a4.53,4.53,0,0,0-4.53,4.54v30.62a4.53,4.53,0,0,0,4.53,4.53H189.41a4.53,4.53,0,0,0,4.53-4.53V224.73A4.53,4.53,0,0,0,189.41,220.19ZM81,233c-6.45,0-6.43-10,0-10S87.43,233,81,233Z" style="fill:#fff;stroke:#263238;stroke-linecap:round;stroke-linejoin:round;stroke-width:0.75px"></path><path d="M85.62,226.47c.8,2.89-.74,6.53-4.62,6.53s-5.42-3.64-4.62-6.53H73.62V253.6h41.17V226.47Z" style="fill:#92B5E3;stroke:#263238;stroke-linecap:round;stroke-linejoin:round;stroke-width:0.75px"></path><path d="M179.24,229.69H121.13a1.57,1.57,0,0,1-1.57-1.57h0a1.58,1.58,0,0,1,1.57-1.57h58.11a1.58,1.58,0,0,1,1.57,1.57h0A1.57,1.57,0,0,1,179.24,229.69Z" style="fill:#263238;stroke:#263238;stroke-linecap:round;stroke-linejoin:round;stroke-width:0.75px"></path><path d="M174.66,236.28H121.13a1.57,1.57,0,0,1-1.57-1.57h0a1.58,1.58,0,0,1,1.57-1.57h53.53a1.57,1.57,0,0,1,1.57,1.57h0A1.57,1.57,0,0,1,174.66,236.28Z" style="fill:#263238;stroke:#263238;stroke-linecap:round;stroke-linejoin:round;stroke-width:0.75px"></path><path d="M177.67,242.87H121.13a1.57,1.57,0,0,1-1.57-1.57h0a1.57,1.57,0,0,1,1.57-1.56h56.54a1.57,1.57,0,0,1,1.57,1.56h0A1.57,1.57,0,0,1,177.67,242.87Z" style="fill:#263238;stroke:#263238;stroke-linecap:round;stroke-linejoin:round;stroke-width:0.75px"></path><path d="M167.73,249.46h-46.6a1.57,1.57,0,0,1-1.57-1.57h0a1.57,1.57,0,0,1,1.57-1.56h46.6a1.57,1.57,0,0,1,1.57,1.56h0A1.57,1.57,0,0,1,167.73,249.46Z" style="fill:#263238;stroke:#263238;stroke-linecap:round;stroke-linejoin:round;stroke-width:0.75px"></path><rect x="67.34" y="266.05" width="126.6" height="39.69" rx="4.53" style="fill:#fff;stroke:#263238;stroke-linecap:round;stroke-linejoin:round;stroke-width:0.75px"></rect><rect x="73.62" y="272.32" width="41.17" height="27.13" style="fill:#92B5E3;stroke:#263238;stroke-linecap:round;stroke-linejoin:round;stroke-width:0.75px"></rect><path d="M179.24,275.55H121.13a1.58,1.58,0,0,1-1.57-1.57h0a1.57,1.57,0,0,1,1.57-1.57h58.11a1.57,1.57,0,0,1,1.57,1.57h0A1.58,1.58,0,0,1,179.24,275.55Z" style="fill:#263238;stroke:#263238;stroke-linecap:round;stroke-linejoin:round;stroke-width:0.75px"></path><path d="M183,282.14h-61.9a1.58,1.58,0,0,1-1.57-1.57h0a1.57,1.57,0,0,1,1.57-1.57H183a1.57,1.57,0,0,1,1.57,1.57h0A1.57,1.57,0,0,1,183,282.14Z" style="fill:#263238;stroke:#263238;stroke-linecap:round;stroke-linejoin:round;stroke-width:0.75px"></path><path d="M171.39,295.32H121.13a1.58,1.58,0,0,1-1.57-1.57h0a1.57,1.57,0,0,1,1.57-1.57h50.26a1.57,1.57,0,0,1,1.57,1.57h0A1.57,1.57,0,0,1,171.39,295.32Z" style="fill:#263238;stroke:#263238;stroke-linecap:round;stroke-linejoin:round;stroke-width:0.75px"></path><path d="M178.19,288.82H121.13a1.57,1.57,0,0,1-1.57-1.57h0a1.57,1.57,0,0,1,1.57-1.56h57.06a1.56,1.56,0,0,1,1.57,1.56h0A1.57,1.57,0,0,1,178.19,288.82Z" style="fill:#263238;stroke:#263238;stroke-linecap:round;stroke-linejoin:round;stroke-width:0.75px"></path><rect x="132.73" y="173.99" width="27.41" height="27.41" rx="8.07" style="fill:#92B5E3;stroke:#263238;stroke-linecap:round;stroke-linejoin:round;stroke-width:0.75px"></rect><path d="M146.44,196.14h0A8.44,8.44,0,0,1,138,187.7h0a8.44,8.44,0,0,1,8.44-8.45h0a8.44,8.44,0,0,1,8.44,8.45h0A8.44,8.44,0,0,1,146.44,196.14Z" style="fill:#fff;opacity:0.5"></path><path d="M158.58,209.67H134.3a1.57,1.57,0,0,1-1.57-1.57h0a1.57,1.57,0,0,1,1.57-1.57h24.28a1.56,1.56,0,0,1,1.56,1.57h0A1.56,1.56,0,0,1,158.58,209.67Z" style="fill:#263238;stroke:#263238;stroke-linecap:round;stroke-linejoin:round;stroke-width:0.75px"></path><rect x="164.38" y="173.99" width="27.41" height="27.41" rx="8.07" style="fill:#92B5E3;stroke:#263238;stroke-linecap:round;stroke-linejoin:round;stroke-width:0.75px"></rect><path d="M178.09,196.14h0a8.44,8.44,0,0,1-8.44-8.44h0a8.44,8.44,0,0,1,8.44-8.45h0a8.44,8.44,0,0,1,8.44,8.45h0A8.44,8.44,0,0,1,178.09,196.14Z" style="fill:#fff;opacity:0.5"></path><path d="M190.23,209.67H166a1.57,1.57,0,0,1-1.57-1.57h0a1.57,1.57,0,0,1,1.57-1.57h24.28a1.56,1.56,0,0,1,1.56,1.57h0A1.56,1.56,0,0,1,190.23,209.67Z" style="fill:#263238;stroke:#263238;stroke-linecap:round;stroke-linejoin:round;stroke-width:0.75px"></path><rect x="101.08" y="173.99" width="27.41" height="27.41" rx="8.07" style="fill:#92B5E3;stroke:#263238;stroke-linecap:round;stroke-linejoin:round;stroke-width:0.75px"></rect><path d="M126.93,209.67H102.65a1.57,1.57,0,0,1-1.57-1.57h0a1.57,1.57,0,0,1,1.57-1.57h24.28a1.56,1.56,0,0,1,1.56,1.57h0A1.56,1.56,0,0,1,126.93,209.67Z" style="fill:#263238;stroke:#263238;stroke-linecap:round;stroke-linejoin:round;stroke-width:0.75px"></path><path d="M114.79,196.14h0a8.44,8.44,0,0,1-8.44-8.44h0a8.44,8.44,0,0,1,8.44-8.45h0a8.44,8.44,0,0,1,8.44,8.45h0A8.44,8.44,0,0,1,114.79,196.14Z" style="fill:#fff;opacity:0.5"></path></g><g id="freepik--Coffee--inject-2"><path d="M159.18,432.2H146.35a11.82,11.82,0,0,1-11.78-10.83L132,395.74h41.46L171,421.37A11.83,11.83,0,0,1,159.18,432.2Z" style="fill:#fff"></path><g style="clip-path:url(#freepik--clip-path-2--inject-2)"><path d="M172,410.53l.14-.19c.06-.14.2-.44.24-.57s.07-.36.1-.54,0-.08,0-.12c.08-.7.14-1.41.24-2.11H133.4a5.53,5.53,0,0,1,.36,3.57v.05h0c0,.33,0,.65,0,1,0,.12,0,.24,0,.36V412c.12.37.12.4,0,.12v.05a6.11,6.11,0,0,1,.38,1.79h37.33A4.22,4.22,0,0,1,172,410.53Z" style="fill:#92B5E3"></path></g><path d="M159.18,432.2H146.35a11.82,11.82,0,0,1-11.78-10.83L132,395.74h41.46L171,421.37A11.83,11.83,0,0,1,159.18,432.2Z" style="fill:none;stroke:#263238;stroke-linecap:round;stroke-linejoin:round"></path><path d="M159.18,432.2H146.35a11.67,11.67,0,0,1-6-1.65l-.35,4.09h25.53l-.35-4.09A11.67,11.67,0,0,1,159.18,432.2Z" style="fill:#fff;stroke:#263238;stroke-linecap:round;stroke-linejoin:round"></path><path d="M178,399.45c-1.81-.43-3.52.33-5.08,1.79l-.51,5.17c1.42-2.35,3.11-4,4.87-3.55,3.77.9,5.1,5.7,3.9,10.69s-5.22,8.28-9,7.38l-1.2-.28-.07.72a12.9,12.9,0,0,1-.39,2.18l.48.11c5.86,1.41,11.92-2.86,13.53-9.55S183.89,400.87,178,399.45Z" style="fill:#fff;stroke:#263238;stroke-linecap:round;stroke-linejoin:round"></path><path d="M152.84,428.92c-4.17.63-8.78,4.06-8.28,7.35s5.93,5.2,10.1,4.57c3.36-.52,4-3.35,5.82-5.12,5.35-5.19,26-5.1,33.65-4.88a2.41,2.41,0,0,0,2.45-2.78h0a2.41,2.41,0,0,0-2.66-2c-6.36.73-24.15,2.88-32.48,5C159,431.63,156.21,428.41,152.84,428.92Z" style="fill:#fff;stroke:#263238;stroke-linecap:round;stroke-linejoin:round"></path><path d="M166.67,441.9H137.12A35.36,35.36,0,0,1,124,439.37l-9.59-3.83a1.07,1.07,0,0,1,.4-2.06H189a1.07,1.07,0,0,1,.4,2.06l-9.59,3.83A35.32,35.32,0,0,1,166.67,441.9Z" style="fill:#fff;stroke:#263238;stroke-linecap:round;stroke-linejoin:round"></path><path d="M153.49,343.6A11,11,0,0,0,150,340" style="fill:none;stroke:#263238;stroke-linecap:round;stroke-linejoin:round"></path><path d="M152.3,362.09c3.16-6.31,3.51-11.07,2.76-14.52" style="fill:none;stroke:#263238;stroke-linecap:round;stroke-linejoin:round"></path><path d="M147.2,380.89c-.78-4.28-.17-9.67,3.62-16.09" style="fill:none;stroke:#263238;stroke-linecap:round;stroke-linejoin:round"></path><path d="M154.87,392.92a20.1,20.1,0,0,1-6.92-9.25" style="fill:none;stroke:#263238;stroke-linecap:round;stroke-linejoin:round"></path><path d="M164.42,354.83a8.85,8.85,0,0,0-3.07-3.47" style="fill:none;stroke:#263238;stroke-linecap:round;stroke-linejoin:round"></path><path d="M163.56,367.86c2-4.36,2.29-7.72,1.81-10.24" style="fill:none;stroke:#263238;stroke-linecap:round;stroke-linejoin:round"></path><path d="M165.16,392.92s-11.61-7.75-3.18-22.07" style="fill:none;stroke:#263238;stroke-linecap:round;stroke-linejoin:round"></path><path d="M143.46,366.81a8.78,8.78,0,0,0-.38-2.59" style="fill:none;stroke:#263238;stroke-linecap:round;stroke-linejoin:round"></path><path d="M140.63,375.54a20.94,20.94,0,0,0,2.52-6" style="fill:none;stroke:#263238;stroke-linecap:round;stroke-linejoin:round"></path><path d="M143.14,392.92s-7.84-5.23-3.74-14.95" style="fill:none;stroke:#263238;stroke-linecap:round;stroke-linejoin:round"></path></g><g id="freepik--Character--inject-2"><path d="M217.88,316.47S202.75,358.15,207.55,376s29.85,12.35,36,1.42,18.07-50.58,18.07-50.58l-12.35-23.75-27.35,6.17L219.3,313Z" style="fill:#858585"></path><g style="clip-path:url(#freepik--clip-path-3--inject-2)"><path d="M246.52,375.39a5.38,5.38,0,0,1,.9-2.81,3.09,3.09,0,0,1-.32-3c1.69-6,5.27-13.13,7.17-19.12,2-6.23,5.85-13.28,6-19.89.2-10.51-10.28-15.06-19.37-17-4.85,9.79-23,45.14-34.35,48.86.17,3,.84,5.93.57,8.92,0,.11,0,.21,0,.32a6.65,6.65,0,0,1,.63,2,6.83,6.83,0,0,1,0,1.75Z" style="opacity:0.2"></path></g><path d="M217.88,316.47S202.75,358.15,207.55,376s29.85,12.35,36,1.42,18.07-50.58,18.07-50.58l-12.35-23.75-27.35,6.17L219.3,313Z" style="fill:none;stroke:#263238;stroke-linecap:round;stroke-linejoin:round"></path><path d="M359.73,162.89s5.8-5.27,1.47-10.81c0,0,5.79-4.12,1.61-11.25,0,0,6.36-8.07-1.61-13.45,0,0,4.07-8.4-5.27-8.24,0,0,1.58-8.86-7.76-5.54,0,0,.63-8.87-7.28-4.91,0,0-3.49-7.91-7.6.32,0,0-4-10.45-10.93-6.81,0,0-13.46-6.17-15.36,1.74,0,0-8.71-2.21-11,3.8,0,0-9.74-1.26-10.21,7.13,0,0-9.19,3.16-6.34,10,0,0-4.1,5.39-.55,10.77,0,0-3.41,3.64.55,10.29,0,0-1.74,6.81,3,11.72l57.79,9.5,2.69,13.14,11.21-4.43Z" style="fill:#263238;stroke:#263238;stroke-linecap:round;stroke-linejoin:round"></path><path d="M323.28,107.35c-2.11-2.73-6-5.11-12.79-2.14" style="fill:none;stroke:#7f7f7f;stroke-linecap:round;stroke-linejoin:round;stroke-width:0.75px"></path><path d="M325.53,112a12.51,12.51,0,0,0-.87-2.39" style="fill:none;stroke:#7f7f7f;stroke-linecap:round;stroke-linejoin:round;stroke-width:0.75px"></path><path d="M315.55,111.38s-10.29,6.34-14.09-2.69" style="fill:none;stroke:#7f7f7f;stroke-linecap:round;stroke-linejoin:round;stroke-width:0.75px"></path><path d="M332.06,119.21s-11.5,3.72-13.06-5.95" style="fill:none;stroke:#7f7f7f;stroke-linecap:round;stroke-linejoin:round;stroke-width:0.75px"></path><path d="M322.86,127.24c-2-2.89-5.94-5.67-13.09-2.55" style="fill:none;stroke:#7f7f7f;stroke-linecap:round;stroke-linejoin:round;stroke-width:0.75px"></path><path d="M324.81,131.5a12.63,12.63,0,0,0-.86-2.38" style="fill:none;stroke:#7f7f7f;stroke-linecap:round;stroke-linejoin:round;stroke-width:0.75px"></path><path d="M300.85,131.07a9.83,9.83,0,0,1-1.45-2.43" style="fill:none;stroke:#7f7f7f;stroke-linecap:round;stroke-linejoin:round;stroke-width:0.75px"></path><path d="M313.5,131.33s-6.8,4.18-11.38.91" style="fill:none;stroke:#7f7f7f;stroke-linecap:round;stroke-linejoin:round;stroke-width:0.75px"></path><path d="M359.37,145.6s2.89-8.91-7.14-10.12" style="fill:none;stroke:#7f7f7f;stroke-linecap:round;stroke-linejoin:round;stroke-width:0.75px"></path><path d="M341.34,141.78s-3.73,6.65,4.08,9.22" style="fill:none;stroke:#7f7f7f;stroke-linecap:round;stroke-linejoin:round;stroke-width:0.75px"></path><path d="M353.16,141.4s-9.06.18-8.09-7.1" style="fill:none;stroke:#7f7f7f;stroke-linecap:round;stroke-linejoin:round;stroke-width:0.75px"></path><path d="M352.23,155.23s-6.45-6.37-.56-10.75" style="fill:none;stroke:#7f7f7f;stroke-linecap:round;stroke-linejoin:round;stroke-width:0.75px"></path><path d="M303.26,125.78s2.89-8.91-7.14-10.12" style="fill:none;stroke:#7f7f7f;stroke-linecap:round;stroke-linejoin:round;stroke-width:0.75px"></path><path d="M285.23,122s-3.73,6.65,4.08,9.22" style="fill:none;stroke:#7f7f7f;stroke-linecap:round;stroke-linejoin:round;stroke-width:0.75px"></path><path d="M297.05,121.58s-9.06.18-8.09-7.1" style="fill:none;stroke:#7f7f7f;stroke-linecap:round;stroke-linejoin:round;stroke-width:0.75px"></path><path d="M296.12,135.41s-6.45-6.36-.56-10.74" style="fill:none;stroke:#7f7f7f;stroke-linecap:round;stroke-linejoin:round;stroke-width:0.75px"></path><path d="M352.2,126.62s2.9-8.91-7.14-10.13" style="fill:none;stroke:#7f7f7f;stroke-linecap:round;stroke-linejoin:round;stroke-width:0.75px"></path><path d="M334.17,122.8s-3.73,6.65,4.08,9.22" style="fill:none;stroke:#7f7f7f;stroke-linecap:round;stroke-linejoin:round;stroke-width:0.75px"></path><path d="M346,122.41s-9.06.19-8.09-7.09" style="fill:none;stroke:#7f7f7f;stroke-linecap:round;stroke-linejoin:round;stroke-width:0.75px"></path><path d="M415.78,256.21s-16,84-18.4,185.25H253.46s16.32-85.93-2-198C251.49,243.43,325.69,190.62,415.78,256.21Z" style="fill:#92B5E3"></path><g style="clip-path:url(#freepik--clip-path-4--inject-2)"><path d="M410.09,264.33s-18.36,29.61-21.53,57.72a463.56,463.56,0,0,0-3.16,46.78l-81.7-21.49s49.39,41.73,75.68,59.18c11.52,7.64,18.06,32.55,18.06,32.55l1.71-36L397,326.67l18.82-52.84Z" style="opacity:0.2"></path><polygon points="338.45 258.22 321.22 245.02 303.03 257.57 297.52 239.32 314.9 232.51 337.58 235.2 345.18 245.37 338.45 258.22" style="opacity:0.2"></polygon></g><path d="M415.78,256.21s-16,84-18.4,185.25H253.46s16.32-85.93-2-198C251.49,243.43,325.69,190.62,415.78,256.21Z" style="fill:none;stroke:#263238;stroke-linecap:round;stroke-linejoin:round"></path><path d="M437.16,326.4s2.22,58.8-18.54,79.17c0,0-24.93,5.7-97.84-49.72,0,0-7.24.63-11-3.8,0,0-11.75,4.12-17.91-2.53,0,0-7.9.31-9.67-7,0,0-5,.63-6.76-1.58,0,0-6,.31-6.85-2.85s5.93-5.72,5.93-5.72.13-7.27,3.14-9.48a24,24,0,0,1,5.79-3.17s-19.92-12-17.49-18.68,5.77,5.06,24.72,13.3c0,0,9.52.31,11.35,3.8l23.05,19.31s6.74,1.8,8.95,2.54c14.33,4.78,34.42,13.3,58.28,14.88l4.63-38S425.87,309.93,437.16,326.4Z" style="fill:#858585"></path><g style="clip-path:url(#freepik--clip-path-5--inject-2)"><polygon points="406.68 316.47 399.9 355.18 392.28 354.9 392.94 349.52 396.38 321.21 399.15 308.83 405.03 310.09 406.68 316.47" style="opacity:0.2"></polygon><path d="M433.9,370.08s-7.18,23.45-15.89,32c0,0,7.92-12.35-26.91-21.21S322.86,351,322.86,351s-12-9.57-17.42-7.81-3.2,4.49-1.74,4.13,3.48.2,3.6,2.18.19,3.36-2.17,3.57a28.51,28.51,0,0,1,4.62-1c1,.34,4.87,2.72,6,3.13,1.63.62,3.22-.1,5.07.67,3.34,1.4,7.15,6.12,10.83,8,2.11,1.1,24.16,16.65,26.39,17.81,24.58,12.77,32.63,16.18,32.63,16.18l13,5.73,10.21,2,4.74,0,6.72-9.17,6.27-16.27,1.19-6.72Z" style="opacity:0.2"></path><path d="M300.8,353.28a4.47,4.47,0,0,1-1.93-3.76c.24-2.3-4.62,1.06-7.3-2.52,0,0-5.68-.37-9.4-7.38,0,0-6.17,1.08-7.08-1.66,0,0-.45-8.43-1.16-8.08s-2.49,1.55-2.49,1.55l1.78,11.12,10.2,8.35,11.87,4.75h5.51Z" style="opacity:0.2"></path><path d="M281.06,319.75s2.54.26,8.83-2.21c0,0-9.25-2.34-15.25-7.14s-7.39-10.08-8.92-7.83,4.77,9.26,4.77,9.26Z" style="opacity:0.2"></path></g><path d="M437.16,326.4s2.22,58.8-18.54,79.17c0,0-24.93,5.7-97.84-49.72,0,0-7.24.63-11-3.8,0,0-11.75,4.12-17.91-2.53,0,0-7.9.31-9.67-7,0,0-5,.63-6.76-1.58,0,0-6,.31-6.85-2.85s5.93-5.72,5.93-5.72.13-7.27,3.14-9.48a24,24,0,0,1,5.79-3.17s-19.92-12-17.49-18.68,5.77,5.06,24.72,13.3c0,0,9.52.31,11.35,3.8l23.05,19.31s6.74,1.8,8.95,2.54c14.33,4.78,34.42,13.3,58.28,14.88l4.63-38S425.87,309.93,437.16,326.4Z" style="fill:none;stroke:#263238;stroke-linecap:round;stroke-linejoin:round"></path><path d="M394.56,355.18c8.09.4,11.44-1.64,18.21,7.48" style="fill:none;stroke:#263238;stroke-linecap:round;stroke-linejoin:round"></path><path d="M295.29,324.66s-11.65,5-12.27,8a83.8,83.8,0,0,0-.85,9.93" style="fill:none;stroke:#263238;stroke-linecap:round;stroke-linejoin:round"></path><path d="M301.45,331.31a9.91,9.91,0,0,1-3.29,3.92c-3.27,2.41-6.93,2.73-7,5.7s.64,8.59.64,8.59" style="fill:none;stroke:#263238;stroke-linecap:round;stroke-linejoin:round"></path><line x1="274.49" y1="332.4" x2="275.41" y2="340.97" style="fill:none;stroke:#263238;stroke-linecap:round;stroke-linejoin:round"></line><line x1="283.42" y1="319.75" x2="293.05" y2="316.47" style="fill:none;stroke:#263238;stroke-linecap:round;stroke-linejoin:round"></line><path d="M306.6,342.16a25,25,0,0,1-5.8,4.19" style="fill:none;stroke:#263238;stroke-linecap:round;stroke-linejoin:round"></path><path d="M251.49,243.43S217.7,256.84,216,316.2a1.54,1.54,0,0,0,2.42,1.3c5.21-3.72,18.69-8.74,41.31,13.3a1.68,1.68,0,0,0,2.85-1.19v-.08c0-6.33-.08-19.4-1.4-34.7C259.79,278.42,257,259.43,251.49,243.43Z" style="fill:#92B5E3;stroke:#263238;stroke-linecap:round;stroke-linejoin:round"></path><path d="M224.82,306.3c7.9-1.46,22.14-.87,36.44,15.75" style="fill:none;stroke:#263238;stroke-linecap:round;stroke-linejoin:round"></path><path d="M218.5,308.27a20.33,20.33,0,0,1,3.66-1.35" style="fill:none;stroke:#263238;stroke-linecap:round;stroke-linejoin:round"></path><path d="M358.46,229.9s-11.16-17.34-8.07-47.27l-45.65,3s-.4,39.58-15,41.68l11.92,15.25,10.51.78,18.17.08,26.48-8.55Z" style="fill:#858585"></path><g style="clip-path:url(#freepik--clip-path-6--inject-2)"><path d="M346.21,188.43a76.42,76.42,0,0,1-10.84,3.07,4.36,4.36,0,0,1-3.29,3c-5.07,1.12-10.26,1.44-15.36,2.39s-10,2.06-15.06,2.27c-5.44.22-10.76-1-16-2.31l-.34-.08c2.33,2.61,4.58,5.24,5.81,8.6.84,2.33.93,5,2,7.18.52,1.12,1.48,1.92,2.06,3a.05.05,0,0,0,0,0,4,4,0,0,1,2.34,5.54l-.3.71a5.6,5.6,0,0,1-3.16,3.3c3,3.65,5.95,6,8.54,6,8.6,0,25.19-5.13,35.86-16,10.17-10.33,10.16-28.84,10.19-30.32C347.66,185.12,347.18,188.08,346.21,188.43Z" style="fill:#263238;stroke:#263238;stroke-linecap:round;stroke-linejoin:round"></path></g><path d="M358.46,229.9s-11.16-17.34-8.07-47.27l-45.65,3s-.4,39.58-15,41.68l11.92,15.25,10.51.78,18.17.08,26.48-8.55Z" style="fill:none;stroke:#263238;stroke-linecap:round;stroke-linejoin:round"></path><path d="M349.85,167s2.67-10.45,8.61-9,2.14,35.39-10.45,26.84c0,0,0,16.95-10.69,27.79s-22.52,14.08-31.11,14.08-21.57-26-23.73-39.26-1.44-43.93,1.64-47.73,41.07.71,49.51-2.85-1.06,15.2,3.46,19.71,7.84,1,6.89,19l3.79-3.56Z" style="fill:#858585;stroke:#263238;stroke-linecap:round;stroke-linejoin:round"></path><path d="M314.9,175.59c0,1.69,1.07,3.06,2.39,3.06s2.39-1.37,2.39-3.06-1.07-3.06-2.39-3.06S314.9,173.9,314.9,175.59Z" style="fill:#263238"></path><path d="M290.06,175.59c0,1.69,1.07,3.06,2.39,3.06s2.39-1.37,2.39-3.06-1.07-3.06-2.39-3.06S290.06,173.9,290.06,175.59Z" style="fill:#263238"></path><path d="M330.28,164.58s-7.13-7.44-18,0" style="fill:none;stroke:#263238;stroke-linecap:round;stroke-linejoin:round;stroke-width:4px"></path><path d="M296.87,165.38s-8.87-9.33-12.67-2.45" style="fill:none;stroke:#263238;stroke-linecap:round;stroke-linejoin:round;stroke-width:4px"></path><path d="M325.36,200.58s-21.3,7.11-30.39,1C295,201.63,306.44,221.5,325.36,200.58Z" style="fill:#fff;stroke:#263238;stroke-linecap:round;stroke-linejoin:round"></path><path d="M313.49,185.64s3.45,3.14,1.27,5.84a3.8,3.8,0,0,1-4.07,1.11,3.62,3.62,0,0,0-3.85.65c-1.9,2.06-6.8,1.59-8.39-1a8.17,8.17,0,0,0-2.27-.47A2.2,2.2,0,0,1,294,190c-.21-1.32.22-3,2.83-4.32" style="fill:none;stroke:#263238;stroke-linecap:round;stroke-linejoin:round"></path><path d="M300.35,170.47a33.26,33.26,0,0,1,1.14,11.85" style="fill:none;stroke:#263238;stroke-linecap:round;stroke-linejoin:round"></path><path d="M320.94,200.24s-9.19-2.17-14.7.46a2,2,0,0,1-2-.09c-1.15-.76-3.5-1.72-7.35-.87" style="fill:none;stroke:#263238;stroke-linecap:round;stroke-linejoin:round;stroke-width:0.75px"></path><path d="M358.15,227.64c-4.2,3.73-18.84,11.7-38.5,15.79l8.89,1.43,11.27,15.2s23.24-12.6,28.49-29.93l-5.21-2.9A4.28,4.28,0,0,0,358.15,227.64Z" style="fill:#92B5E3;stroke:#263238;stroke-linecap:round;stroke-linejoin:round"></path><path d="M292.22,226.64c3.51,4.47,8.62,12.88,27.94,16.79l-8.69,1.43-10.09,15.2s-17-11.4-18.56-31.83l4.36-2.63A3.9,3.9,0,0,1,292.22,226.64Z" style="fill:#92B5E3;stroke:#263238;stroke-linecap:round;stroke-linejoin:round"></path><path d="M322.36,177.25a12.59,12.59,0,0,1-10.13,0" style="fill:none;stroke:#263238;stroke-linecap:round;stroke-linejoin:round;stroke-width:0.75px"></path><path d="M297.52,177.25a12.59,12.59,0,0,1-10.13,0" style="fill:none;stroke:#263238;stroke-linecap:round;stroke-linejoin:round;stroke-width:0.75px"></path><path d="M415.78,256.21s25.67,9.32,22.93,72.57a1.15,1.15,0,0,1-2,.69c-3.84-4.83-14.44-13.43-39.05-8a1.44,1.44,0,0,1-1.73-1.56C396.91,310.55,402,270.52,415.78,256.21Z" style="fill:#92B5E3;stroke:#263238;stroke-linecap:round;stroke-linejoin:round"></path><path d="M399.9,312.9l-1.51.36" style="fill:none;stroke:#263238;stroke-linecap:round;stroke-linejoin:round"></path><path d="M411.8,311.56a50.44,50.44,0,0,0-10.24,1" style="fill:none;stroke:#263238;stroke-linecap:round;stroke-linejoin:round"></path><path d="M431.61,317a37.45,37.45,0,0,0-17.73-5.4" style="fill:none;stroke:#263238;stroke-linecap:round;stroke-linejoin:round"></path><path d="M436.61,320.87a29.06,29.06,0,0,0-3.05-2.54" style="fill:none;stroke:#263238;stroke-linecap:round;stroke-linejoin:round"></path><path d="M274.64,310.4a1.55,1.55,0,0,1-1.31.6H250.19a3.5,3.5,0,0,1-3-2.24L229,257.91a1.8,1.8,0,0,1,.09-1.59l1.82-2a1.53,1.53,0,0,1,1.3-.59h23.14a3.5,3.5,0,0,1,3,2.24l18.14,50.85a1.8,1.8,0,0,1-.09,1.59Z" style="fill:#fff;stroke:#263238;stroke-linecap:round;stroke-linejoin:round"></path><path d="M250.19,311h23.14a1.52,1.52,0,0,0,1.44-2.24l-18.14-50.85a3.5,3.5,0,0,0-3-2.24H230.46a1.53,1.53,0,0,0-1.45,2.24l18.14,50.85A3.5,3.5,0,0,0,250.19,311Z" style="fill:#263238;stroke:#263238;stroke-linecap:round;stroke-linejoin:round"></path><path d="M250.44,267.54h5.49a1.52,1.52,0,0,0,1.44-2.24l-2-5.49a3.5,3.5,0,0,0-3-2.24h-5.49a1.52,1.52,0,0,0-1.44,2.24l1.95,5.49A3.53,3.53,0,0,0,250.44,267.54Z" style="fill:#858585;stroke:#263238;stroke-linecap:round;stroke-linejoin:round"></path><path d="M246.9,260.24a2,2,0,0,0,1.77,1.3.89.89,0,0,0,.84-1.3,2.06,2.06,0,0,0-1.77-1.31A.89.89,0,0,0,246.9,260.24Z"></path><path d="M252.55,262.55a2.06,2.06,0,0,0,1.77,1.31.89.89,0,0,0,.84-1.31,2,2,0,0,0-1.77-1.3A.89.89,0,0,0,252.55,262.55Z"></path><path d="M248.55,264.87a2,2,0,0,0,1.77,1.3.89.89,0,0,0,.84-1.3,2.06,2.06,0,0,0-1.77-1.31A.89.89,0,0,0,248.55,264.87Z"></path><path d="M229.76,316.47S206.85,359.1,207.55,376s11.32,22.56,11.32,22.56,28.64-1.42,29.11-35.39l3.87-33s10-3.4,14-10.37c0,0,10-3.4,13.14-9.1s5-13.07,1.85-14.25-5.35,9.2-8.09,11.16c-1.83,1.31-4.76,3-6.49,4a1.51,1.51,0,0,1-2.08-.77h0a1.36,1.36,0,0,1,.41-1.67,30.65,30.65,0,0,0,6.27-6c3-4,11.49-15.68,7.27-18.29S267,295,264.26,297.11c-1.67,1.32-4,2.83-5.47,3.79a2.51,2.51,0,0,1-3-.34l-.17-.15a2.53,2.53,0,0,1-.64-3,42.27,42.27,0,0,1,2.64-4.85c1.82-2.41,4.25-4.73,8-9.06,3.91-4.48,7.38-7.65,4.74-9.71-5.19-4-18.62,11.17-20.39,13.07a19.71,19.71,0,0,0-2.78,4.56,1.45,1.45,0,0,1-2,.61h0a1.66,1.66,0,0,1-.87-1.3c-.16-1.89-.47-6.28-.06-7.91.59-2.36,2.27-4,4.7-8.36,2.14-3.79,4.62-7.79,2.84-9.45-3.81-3.57-11.37,7.36-11.37,7.36L235,282.15s2.26-5-.52-7.37-2.62,3.09-5,5.94-.1,8.79-.75,13.06a55.42,55.42,0,0,0-.66,7.6Z" style="fill:#858585"></path><g style="clip-path:url(#freepik--clip-path-7--inject-2)"><path d="M261.26,318.11a46.89,46.89,0,0,1-8.48-8.27c-2.84-3.71-4.74-8.69-8.3-8.69s-6.51-4.8-10.38-2,1,15.5,0,20.64,5.22,91.12-23.87,67.95a23,23,0,0,0,2,5,1.63,1.63,0,0,0,.11.17c.23.29.46.58.63.83l0,0,.12.3a14.69,14.69,0,0,0,6,4.62c.41,0,.85-.05,1.31-.05l.46-.2L222,398a5.33,5.33,0,0,1,2.62-1.06l.89-.14a27.21,27.21,0,0,1,3.82-.9c.34-.11.68-.24,1-.37a48.16,48.16,0,0,0,11.39-9.38,29.78,29.78,0,0,1,2.95-6.19c1-1.7,2-3.22,1.92-5.23a4.57,4.57,0,0,1,1-3.22c.43-5.86.59-11.56,1.54-17.41,1.05-6.39,2.24-12.69,2.22-19.2a5.46,5.46,0,0,1,.06-.82,5.26,5.26,0,0,1,.12-2,5.42,5.42,0,0,1,2.29-3c.9-.65,1.94-1.09,2.83-1.74a3.73,3.73,0,0,1,1.52-.6C259.79,324.91,263.67,320.1,261.26,318.11Z" style="opacity:0.2"></path><path d="M269.36,300.46a12.64,12.64,0,0,1-2-2,1.34,1.34,0,0,0-2.14,0c-1.25,1.74-3.4,4.33-5.74,5.54,0,0,2.14,4.75,4.28,3.8,1.53-.68,4.34-3.74,5.81-5.42A1.33,1.33,0,0,0,269.36,300.46Z" style="opacity:0.2"></path><path d="M255.51,290.81a9.16,9.16,0,0,1-3.63-2.33.75.75,0,0,0-1.23.14l-2.45,4.69s1.75,2.74,4.27,3.44a37.47,37.47,0,0,1,3.32-4.74A.75.75,0,0,0,255.51,290.81Z" style="opacity:0.2"></path><path d="M243.17,281.67s-2.9,3.8-5.7,2.73v6.77l5.7-.35S242.11,287.37,243.17,281.67Z" style="opacity:0.2"></path><path d="M276.19,312.43s-4.79,2.06-8.35,2.19a1.64,1.64,0,0,0-1.58,1.24l-.54,2.25S270.25,317.53,276.19,312.43Z" style="opacity:0.2"></path><path d="M235.5,280.53s-1.71,3.64-3.73,5.06.24,2.42,0,5.72C231.77,291.31,234.84,283.07,235.5,280.53Z" style="opacity:0.2"></path></g><path d="M229.76,316.47S206.85,359.1,207.55,376s11.32,22.56,11.32,22.56,28.64-1.42,29.11-35.39l3.87-33s10-3.4,14-10.37c0,0,10-3.4,13.14-9.1s5-13.07,1.85-14.25-5.35,9.2-8.09,11.16c-1.83,1.31-4.76,3-6.49,4a1.51,1.51,0,0,1-2.08-.77h0a1.36,1.36,0,0,1,.41-1.67,30.65,30.65,0,0,0,6.27-6c3-4,11.49-15.68,7.27-18.29S267,295,264.26,297.11c-1.67,1.32-4,2.83-5.47,3.79a2.51,2.51,0,0,1-3-.34l-.17-.15a2.53,2.53,0,0,1-.64-3,42.27,42.27,0,0,1,2.64-4.85c1.82-2.41,4.25-4.73,8-9.06,3.91-4.48,7.38-7.65,4.74-9.71-5.19-4-18.62,11.17-20.39,13.07a19.71,19.71,0,0,0-2.78,4.56,1.45,1.45,0,0,1-2,.61h0a1.66,1.66,0,0,1-.87-1.3c-.16-1.89-.47-6.28-.06-7.91.59-2.36,2.27-4,4.7-8.36,2.14-3.79,4.62-7.79,2.84-9.45-3.81-3.57-11.37,7.36-11.37,7.36L235,282.15s2.26-5-.52-7.37-2.62,3.09-5,5.94-.1,8.79-.75,13.06a55.42,55.42,0,0,0-.66,7.6Z" style="fill:none;stroke:#263238;stroke-linecap:round;stroke-linejoin:round"></path><path d="M234.68,283.33s-2.77,9.5-4.4,10" style="fill:none;stroke:#263238;stroke-linecap:round;stroke-linejoin:round"></path><path d="M373.52,426.3c1.31.17,2.62.33,4,.48" style="fill:none;stroke:#263238;stroke-linecap:round;stroke-linejoin:round"></path><path d="M315.71,415.52c13.1,3.6,30.29,7.15,52.82,10.14" style="fill:none;stroke:#263238;stroke-linecap:round;stroke-linejoin:round"></path><path d="M278.92,399.74c4.66,3.65,13.94,9,32,14.42" style="fill:none;stroke:#263238;stroke-linecap:round;stroke-linejoin:round"></path><path d="M274.49,395.12a10.43,10.43,0,0,0,2.07,2.56" style="fill:none;stroke:#263238;stroke-linecap:round;stroke-linejoin:round"></path><path d="M324.79,248.2l-1.7,48.64h0a8.53,8.53,0,0,1-8.58-8.89l1.39-39.75" style="fill:none;stroke:#263238;stroke-linecap:round;stroke-linejoin:round;stroke-width:0.75px"></path><path d="M323.16,252.67a3,3,0,1,1-3-3A3,3,0,0,1,323.16,252.67Z" style="fill:#92B5E3;stroke:#263238;stroke-linecap:round;stroke-linejoin:round;stroke-width:0.75px"></path><circle cx="318.86" cy="285.38" r="3" style="fill:#92B5E3;stroke:#263238;stroke-linecap:round;stroke-linejoin:round;stroke-width:0.75px"></circle><path d="M324.09,198.92a9.23,9.23,0,0,0,3.33,2.91" style="fill:#858585;stroke:#263238;stroke-linecap:round;stroke-linejoin:round;stroke-width:0.75px"></path><path d="M298.16,205.55s1.42,1.74,5.17,1.87" style="fill:none;stroke:#263238;stroke-linecap:round;stroke-linejoin:round;stroke-width:0.75px"></path><path d="M325.36,200.58a41.12,41.12,0,0,1-7.65,4.79" style="fill:#858585;stroke:#263238;stroke-linecap:round;stroke-linejoin:round;stroke-width:0.75px"></path><path d="M296.17,205.8s3.3,11,13.73,9.7,14.19-11.39,14.19-11.39" style="fill:none;stroke:#263238;stroke-linecap:round;stroke-linejoin:round;stroke-width:0.75px"></path></g><g id="freepik--Comment--inject-2"><path d="M422.26,133.07H391a1.35,1.35,0,0,1-1.35-1.35h0a1.34,1.34,0,0,1,1.35-1.35h31.29a1.35,1.35,0,0,1,1.35,1.35h0A1.36,1.36,0,0,1,422.26,133.07Z" style="fill:#263238;stroke:#263238;stroke-linecap:round;stroke-linejoin:round;stroke-width:0.75px"></path><path d="M421.36,139.8H391a1.35,1.35,0,0,1-1.35-1.35h0A1.34,1.34,0,0,1,391,137.1h30.39a1.35,1.35,0,0,1,1.35,1.35h0A1.36,1.36,0,0,1,421.36,139.8Z" style="fill:#263238;stroke:#263238;stroke-linecap:round;stroke-linejoin:round;stroke-width:0.75px"></path><rect x="389.62" y="143.83" width="24.09" height="2.7" rx="1.35" style="fill:#263238;stroke:#263238;stroke-linecap:round;stroke-linejoin:round;stroke-width:0.75px"></rect><path d="M426.15,153a4.43,4.43,0,0,0,4.43-4.43V131.42" style="fill:none;stroke:#263238;stroke-linecap:round;stroke-linejoin:round;stroke-width:0.75px"></path><polyline points="423.6 152.99 406.55 152.99 394.71 164.83 394.71 152.99 392.56 152.99" style="fill:none;stroke:#263238;stroke-linecap:round;stroke-linejoin:round;stroke-width:0.75px"></polyline><path d="M382.64,131.42v17.14a4.43,4.43,0,0,0,4.43,4.43h2.55" style="fill:none;stroke:#263238;stroke-linecap:round;stroke-linejoin:round;stroke-width:0.75px"></path><path d="M430.58,128.56a4.43,4.43,0,0,0-4.43-4.43H387.07a4.43,4.43,0,0,0-4.43,4.43" style="fill:none;stroke:#263238;stroke-linecap:round;stroke-linejoin:round;stroke-width:0.75px"></path></g><g id="freepik--Rating--inject-2"><path d="M446.86,187.06a4.44,4.44,0,0,0-4.43-4.43H377" style="fill:none;stroke:#263238;stroke-linecap:round;stroke-linejoin:round;stroke-width:0.75px"></path><path d="M396.5,211.49h45.93a4.43,4.43,0,0,0,4.43-4.43v-17" style="fill:none;stroke:#263238;stroke-linecap:round;stroke-linejoin:round;stroke-width:0.75px"></path><polyline points="381.69 217.67 381.69 223.33 393.54 211.49" style="fill:none;stroke:#263238;stroke-linecap:round;stroke-linejoin:round;stroke-width:0.75px"></polyline><path d="M369.63,207.06a4.43,4.43,0,0,0,4.43,4.43h7.63v3.71" style="fill:none;stroke:#263238;stroke-linecap:round;stroke-linejoin:round;stroke-width:0.75px"></path><path d="M374.06,182.63a4.43,4.43,0,0,0-4.43,4.43V204" style="fill:none;stroke:#263238;stroke-linecap:round;stroke-linejoin:round;stroke-width:0.75px"></path><polygon points="385.47 202.4 380.08 205.23 381.11 199.23 376.74 194.97 382.77 194.1 385.47 188.63 388.17 194.1 394.19 194.97 389.83 199.23 390.86 205.23 385.47 202.4" style="fill:none;stroke:#263238;stroke-linecap:round;stroke-linejoin:round;stroke-width:0.75px"></polygon><polygon points="408.24 202.4 402.85 205.23 403.88 199.23 399.52 194.97 405.55 194.1 408.24 188.63 410.94 194.1 416.97 194.97 412.6 199.23 413.63 205.23 408.24 202.4" style="fill:none;stroke:#263238;stroke-linecap:round;stroke-linejoin:round;stroke-width:0.75px"></polygon><polygon points="431.01 202.4 425.62 205.23 426.65 199.23 422.29 194.97 428.32 194.1 431.01 188.63 433.71 194.1 439.74 194.97 435.38 199.23 436.41 205.23 431.01 202.4" style="fill:none;stroke:#263238;stroke-linecap:round;stroke-linejoin:round;stroke-width:0.75px"></polygon></g><g id="freepik--Coding--inject-2"><path d="M239,170.38V151.79H243v20.44c0,4.29-2.15,6.74-6.28,6.74s-6.28-2.45-6.28-6.74V151.79h4.21v20.74c0,1.92.8,2.61,2.14,2.61s2.15-.69,2.15-2.61" style="fill:none;stroke:#263238;stroke-linecap:round;stroke-linejoin:round;stroke-width:0.75px"></path><path d="M255.56,167.35l4,11.23H255.1L252,169.24H252l-3.14,9.34h-4l4.87-13.7-4.64-13.09h4.44l2.84,8.65h.07l2.91-8.65h4l-4.63,13.09" style="fill:none;stroke:#263238;stroke-linecap:round;stroke-linejoin:round;stroke-width:0.75px"></path><path d="M244.17,93,250,90.44V93.5L242,96.91l8.07,3.4v3.07l-11.71-5.06V95.49L242,93.88" style="fill:none;stroke:#263238;stroke-linecap:round;stroke-linejoin:round;stroke-width:0.75px"></path><path d="M256.35,100.41,263,83.51h3.63l-10.56,26.8h-3.64l2.74-6.93" style="fill:none;stroke:#263238;stroke-linecap:round;stroke-linejoin:round;stroke-width:0.75px"></path><path d="M271.08,102.51l-2,.87v-3.07l8.08-3.4-8.08-3.41V90.44l11.72,5v2.83l-6.73,2.91" style="fill:none;stroke:#263238;stroke-linecap:round;stroke-linejoin:round;stroke-width:0.75px"></path></g></svg>